<?xml version="1.0" ?><svg viewBox="0 0 20 20" xmlns="http://www.w3.org/2000/svg"><defs><style>.cls-1{fill:#8e8e8e;}</style></defs><title/><g data-name="Layer 2" id="Layer_2"><g data-name="Layer 1" id="Layer_1-2"><path class="cls-1" d="M11.12,6.45a.82.82,0,0,1,.31-.65,12,12,0,0,0,1.46-1.25L12.33,3.2l-1.9.2a.82.82,0,0,1-.67-.24l0,0a.82.82,0,0,1-.23-.68A12.07,12.07,0,0,0,9.66.56L8.31,0A11.51,11.51,0,0,0,7.1,1.47a.82.82,0,0,1-.65.33h0A.82.82,0,0,1,5.8,1.5L4.55,0,3.2.58l.2,1.9a.82.82,0,0,1-.24.67h0a.82.82,0,0,1-.68.24A11.89,11.89,0,0,0,.56,3.26L0,4.61a11.35,11.35,0,0,0,1.47,1.2.82.82,0,0,1,.33.65h0a.82.82,0,0,1-.31.65A12.41,12.41,0,0,0,0,8.36L.58,9.72a11.35,11.35,0,0,0,1.89-.19.82.82,0,0,1,.93.91,12.19,12.19,0,0,0-.15,1.91l1.35.56a11.8,11.8,0,0,0,1.2-1.47.82.82,0,0,1,.65-.33h0a.82.82,0,0,1,.65.31,11.91,11.91,0,0,0,1.25,1.46l1.36-.56a11.52,11.52,0,0,0-.19-1.89.82.82,0,0,1,.23-.7h0a.82.82,0,0,1,.68-.23,11.88,11.88,0,0,0,1.91.15l.56-1.35a11.33,11.33,0,0,0-1.47-1.2.82.82,0,0,1-.33-.66Zm-3.43,3a3.22,3.22,0,1,1,1.74-4.2A3.22,3.22,0,0,1,7.69,9.43Z"/><path class="cls-1" d="M18.2,16.26a.63.63,0,0,1,.41-.36A9.18,9.18,0,0,0,20,15.44V14.32l-1.4-.41a.63.63,0,0,1-.4-.36v0a.63.63,0,0,1,0-.55,9.22,9.22,0,0,0,.67-1.31l-.79-.79a8.79,8.79,0,0,0-1.28.68.62.62,0,0,1-.56,0h0a.63.63,0,0,1-.36-.39L15.44,9.8H14.32l-.41,1.4a.63.63,0,0,1-.36.4h0a.63.63,0,0,1-.55,0,9.09,9.09,0,0,0-1.31-.66l-.79.79A8.67,8.67,0,0,0,11.57,13a.63.63,0,0,1,0,.56h0a.63.63,0,0,1-.41.37,9.48,9.48,0,0,0-1.4.45v1.12a8.67,8.67,0,0,0,1.39.42.63.63,0,0,1,.39.91,9.31,9.31,0,0,0-.67,1.31l.79.79A9,9,0,0,0,13,18.23a.62.62,0,0,1,.56,0h0a.63.63,0,0,1,.37.41A9.1,9.1,0,0,0,14.36,20h1.12a8.8,8.8,0,0,0,.42-1.39.63.63,0,0,1,.37-.42h0a.63.63,0,0,1,.55,0,9.08,9.08,0,0,0,1.31.66l.79-.79a8.65,8.65,0,0,0-.68-1.28.63.63,0,0,1,0-.56ZM14.9,17A2.13,2.13,0,1,1,17,14.9,2.13,2.13,0,0,1,14.9,17Z"/></g></g></svg>