<svg width="28" height="28" viewBox="0 0 325 321" fill="none" xmlns="http://www.w3.org/2000/svg">
<path d="M260.416 4.33177C259.984 4.56612 245.71 2.43126 227.824 1.35168C213.217 0.469292 196.201 0.502874 182.345 1.33953C171.109 2.01757 156.346 -3.01737 154.582 2.96641C147.979 25.3661 133.773 44.8743 115.701 60.0734C102.106 71.5072 86.5458 80.1775 69.7162 85.5197C49.68 76.3443 40.2177 55.9373 48.7559 38.0445C55.5276 23.8528 63.407 8.22212 48.86 4.64614C38.2701 2.04257 32.4553 11.0858 28.3846 20.7541C20.5861 39.2756 5.7675 58.4415 1.54449 81.1427C-2.91336 105.108 1.53006 130.547 24.7811 144.912C78.9309 178.369 137.71 124.172 199.685 110.549C222.146 105.611 246.8 106.407 266.589 96.1897C281.449 88.5169 291.245 75.802 294.026 61.526C298.498 38.5647 285.098 15.752 260.416 4.33177Z" transform="translate(10.0972 154.353)" fill="#99425B" stroke="white" stroke-width="20"/>
<path d="M154.583 6.80292e-06C147.98 22.3997 133.774 41.9079 115.702 57.107C102.107 68.5408 86.5466 77.2111 69.7162 82.5533C49.68 73.3779 40.2177 52.9709 48.7559 35.0781C55.5276 20.8864 63.407 5.25571 48.8601 1.67974C38.2701 -0.923829 32.4553 8.11936 28.3846 17.7877C20.5861 36.3092 5.76751 55.4751 1.54449 78.1763C-2.91336 102.141 1.53007 127.581 24.7811 141.946C78.9309 175.402 137.71 121.206 199.686 107.582C222.146 102.644 246.801 103.44 266.589 93.2233C281.45 85.5505 291.246 72.8356 294.027 58.5603C298.499 35.599 285.099 12.7863 260.417 1.36608" transform="translate(10 157.32)" stroke="white" stroke-width="20"/>
<path d="M95.8374 57.9944L139.375 137.167L191.546 0H1.17405e-06L52.0507 136.924L95.8374 57.9944Z" transform="translate(118.454 10)" fill="#99425B"/>
<path d="M95.8374 57.9944L139.375 137.167L191.545 0H1.17405e-06L52.0507 136.924L95.8374 57.9944Z" transform="translate(118.454 10)" stroke="white" stroke-width="20"/>
<path d="M32.8167 58.5089C50.9409 58.5089 65.6335 45.4112 65.6335 29.2544C65.6335 13.0977 50.9409 0 32.8167 0C14.6925 0 1.17405e-05 13.0977 1.17405e-05 29.2544C1.17405e-05 45.4112 14.6925 58.5089 32.8167 58.5089Z" transform="translate(128.654 128.345)" fill="#99425B"/>
<path d="M32.8167 58.5089C50.9409 58.5089 65.6335 45.4112 65.6335 29.2544C65.6335 13.0977 50.9409 0 32.8167 0C14.6925 0 1.17405e-05 13.0977 1.17405e-05 29.2544C1.17405e-05 45.4112 14.6925 58.5089 32.8167 58.5089Z" transform="translate(128.654 128.345)" stroke="white" stroke-width="20"/>
<path d="M32.8167 58.5089C50.9409 58.5089 65.6335 45.4112 65.6335 29.2544C65.6335 13.0977 50.9409 0 32.8167 0C14.6925 0 -1.05664e-05 13.0977 -1.05664e-05 29.2544C-1.05664e-05 45.4112 14.6925 58.5089 32.8167 58.5089Z" transform="translate(235.559 128.345)" fill="#99425B" stroke="white" stroke-width="20"/>
<path d="M32.8167 58.5089C50.9409 58.5089 65.6335 45.4112 65.6335 29.2544C65.6335 13.0977 50.9409 0 32.8167 0C14.6925 0 -1.05664e-05 13.0977 -1.05664e-05 29.2544C-1.05664e-05 45.4112 14.6925 58.5089 32.8167 58.5089Z" transform="translate(235.559 128.345)" stroke="white" stroke-width="20"/>
<path d="M32.8167 58.5088C50.9409 58.5088 65.6335 45.4112 65.6335 29.2544C65.6335 13.0977 50.9409 4.88415e-06 32.8167 4.88415e-06C14.6926 4.88415e-06 5.67456e-06 13.0977 5.67456e-06 29.2544C5.67456e-06 45.4112 14.6926 58.5088 32.8167 58.5088Z" transform="translate(21.3442 128.555)" fill="#99425B"/>
<path d="M32.8167 58.5088C50.9409 58.5088 65.6335 45.4112 65.6335 29.2544C65.6335 13.0977 50.9409 4.88415e-06 32.8167 4.88415e-06C14.6926 4.88415e-06 5.67456e-06 13.0977 5.67456e-06 29.2544C5.67456e-06 45.4112 14.6926 58.5088 32.8167 58.5088Z" transform="translate(21.3442 128.555)" stroke="white" stroke-width="20"/>
</svg>
